<svg xmlns="http://www.w3.org/2000/svg" xmlns:xlink="http://www.w3.org/1999/xlink" width="276.604" height="45.463" viewBox="0 0 276.604 45.463"><defs><linearGradient id="a" x1="0.027" y1="0.8" x2="0.933" y2="0.2" gradientUnits="objectBoundingBox"><stop offset="0" stop-color="#fff3ca"/><stop offset="0.748" stop-color="gold"/></linearGradient><linearGradient id="b" x1="-0.055" y1="0.106" x2="0.6" y2="0.661" gradientUnits="objectBoundingBox"><stop offset="0.181"/><stop offset="0.234" stop-color="#100d14"/><stop offset="0.367" stop-color="#352a43"/><stop offset="0.5" stop-color="#54436a"/><stop offset="0.631" stop-color="#6c5688"/><stop offset="0.76" stop-color="#7d649d"/><stop offset="0.884" stop-color="#876caa"/><stop offset="1" stop-color="#8b6faf"/></linearGradient></defs><g transform="translate(-572.599 328.499)"><g transform="translate(572.599 -328.499)"><g transform="translate(0 0)"><g transform="translate(67.174 8.997)"><path d="M1360.9,514.138c0,2.353-1.547,6.574-11.892,6.574h-1.837c-9.25,0-12.215-4.318-12.215-8.863v-.709c0-4.447,2.642-8.734,12.021-8.734h1.966c10.184,0,12.053,5.125,12.053,9.347v1.192h-18.982c.419,2.03,2.159,3.384,6.123,3.384h.032c4.77,0,5.543-1.8,5.64-2.224h7.09Zm-12.989-7.7c-3.609,0-5.22,1.1-5.768,2.933h11.6c-.484-1.837-2.16-2.933-5.8-2.933Z" transform="translate(-1171.033 -497.968)" fill="#fff"/><g transform="translate(192.184 4.438)"><path d="M1466.5,507.078v-4.672h-2.737a9.548,9.548,0,0,0-6.588,2.55,8.377,8.377,0,0,0-2.311,3.893h-.734l2.248-5.959h-7.123v17.339h7.187v-8.96c0-2.224,1.322-4.19,3.739-4.19Z" transform="translate(-1449.25 -502.406)" fill="#fff"/></g><path d="M854.034,504.92v8.186c0,2.836-2.03,4.706-5.157,4.706-3.062,0-4.447-1.74-4.447-4.319V504.92h-7.252v10.8c0,3.255,2.288,6.929,8.251,6.929h.258c7.857,0,9.926-6.346,9.926-6.346h.734l-2.248,5.959h7.122V504.92Z" transform="translate(-796.349 -499.86)" fill="#fff"/><path d="M1152.794,503.226h-.58c-8.641,0-10.313,6.378-10.313,6.378h-.734l2.248-5.959h-7.187v23.4h7.187v-8.509c.58.645,3.481,2.868,8.637,2.868h.516c7.993,0,10.7-4.319,10.7-8.863v-.612C1163.268,507.158,1160.657,503.226,1152.794,503.226Zm3.126,9.088c0,2.095-1.289,4.512-5.93,4.512h-.161c-4.383,0-6.414-2.352-6.414-4.512v-.129c0-2.224,1.934-4.48,6.414-4.48h.161c4.641,0,5.93,2.256,5.93,4.48Z" transform="translate(-1021.449 -498.585)" fill="#fff"/><path d="M695.629,504.92l-4.615,8.283-4.6-8.283H672.063v17.339h7.219v-16.6l9.443,16.6h4.029l9.443-16.6v16.6h7.413V504.92Z" transform="translate(-672.063 -499.86)" fill="#fff"/><g transform="translate(144.041)"><rect width="7.187" height="22.399" fill="#fff"/><rect width="7.187" height="17.339" transform="translate(10.47 4.922)" fill="#fff"/><rect width="7.187" height="1.566" transform="translate(10.47 1.679)" fill="#fff"/></g><g transform="translate(68.156)"><rect width="7.187" height="22.399" fill="#fff"/><rect width="7.187" height="1.566" transform="translate(36.153 1.817)" fill="#fff"/><rect width="7.187" height="17.339" transform="translate(36.153 5.06)" fill="#fff"/><path d="M1004.648,492.236v-7.778H997.7v7.778h-7.67v6.843h7.67v7.778h7.09v-7.778h7.639v-6.843h-7.778Z" transform="translate(-979.556 -484.458)" fill="#fff"/></g></g><g transform="translate(26.212 0)"><path d="M518.042,470.806l13.47-13.47-9.262-9.262-10.961,10.961a16.647,16.647,0,0,0,0,23.542l3.389,3.389Z" transform="translate(-506.413 -448.074)" fill="url(#a)"/><g transform="translate(5.821 22.732)"><path d="M549.232,553.47,535.762,540l-3.364,3.364a8.341,8.341,0,0,0,0,11.8l7.572,7.572Z" transform="translate(-529.955 -540)" fill="url(#b)"/></g></g><g transform="translate(25.098 45.463) rotate(180)"><g transform="translate(0 0)"><path d="M11.628,22.732,25.1,9.262,15.837,0,4.876,10.961a16.647,16.647,0,0,0,0,23.542l3.389,3.389Z" fill="url(#a)"/><g transform="translate(5.821 22.732)"><path d="M19.277,13.47,5.807,0,2.443,3.364a8.341,8.341,0,0,0,0,11.8l7.572,7.572Z" transform="translate(0)" fill="url(#b)"/></g></g></g></g></g></g></svg>